<svg class="logo__image logo__image--svg" version="1.1" id="Layer_1" xmlns="http://www.w3.org/2000/svg" xmlns:xlink="http://www.w3.org/1999/xlink" x="0px" y="0px" viewBox="164.4 353.8 226.8 48.5" xml:space="preserve">
<style type="text/css">
	.play{fill:#FFFFFF;}
	.on{fill:#00CC3D;}
</style>
<g>
	<g>
		<path class="play" d="M164.4,401.5v-47.1h20.7c8.7,0,12.2,7,12.2,15.7c0,8.9-3.5,15.6-12.3,15.6h-8.8v15.8H164.4L164.4,401.5z
			 M181.7,363.8h-5.5v12.6h5.5c2.8,0,3.7-2.4,3.7-6.2C185.4,366.2,184.5,363.8,181.7,363.8z"></path>
		<path class="play" d="M201.6,401.5v-47.1h11.9v37.2h18.6v9.9H201.6L201.6,401.5z"></path>
		<path class="play" d="M264.1,401.5l-2.3-8.6h-12.4l-2.4,8.6h-12.2l13.2-47.1H263l13.6,47.1H264.1z M251.4,383.5h8.1l-2.9-13.1
			c-0.4-1.5-0.9-5.1-1.1-6.7h-0.1c-0.2,1.6-0.7,5.2-1,6.7L251.4,383.5z"></path>
		<path class="play" d="M284.7,401.5v-17.9l-14.7-29.3H283l5.8,12.7c0.5,1.1,1.5,3.9,1.9,5.3h0.1c0.4-1.4,1.4-4.2,1.9-5.3l5.8-12.7
			h12.8l-14.7,29.3v17.8H284.7z"></path>
	</g>
	<g>
		<path class="on" d="M328.8,402.3c-14.5,0-20-7.6-20-24.2c0-16.6,5.4-24.3,20-24.3c14.5,0,19.8,7.7,19.8,24.3
			C348.6,394.6,343.3,402.3,328.8,402.3z M328.8,392.1c5.2,0,7.5-2.5,7.5-14.1s-2.3-14.2-7.5-14.2c-5.2,0-7.5,2.6-7.5,14.2
			C321.3,389.5,323.6,392.1,328.8,392.1z"></path>
		<path class="on" d="M378.2,379.3c0.9,2.2,1.8,4.8,2.6,7.6h0.1c-0.2-2.9-0.4-5.7-0.4-8.2l-0.1-24.2h10.6v47.1h-14.3L366,377.1
			c-0.8-1.8-1.8-4.8-2.5-7.5h-0.1c0.3,2.7,0.4,6,0.4,8.6l0.1,23.4h-10.8v-47.1h14.7L378.2,379.3z"></path>
	</g>
</g>
</svg>