<svg class="logo__image logo__image--svg" xmlns="http://www.w3.org/2000/svg" viewBox="0 0 253.73 40.53">
  <g class="logo">
    <path class="trademark" d="M130.17,35.76h1.58V40h.88V35.76h1.59V35h-4.05ZM134.78,40h.84V36.14h0L137,40h.72l1.38-3.86h0V40H140V35h-1.22l-1.34,3.92h0L136,35h-1.23Z"></path>
    <path class="f1" d="M40.37,22.79,22.63,40H0L28.15,12.06C38.62,1.7,43.67,0,61.51,0H132l-15.3,15H63.53C50.2,15,47.36,16,40.37,22.79Zm74.05-5.42H63.85c-13.43,0-15.53,1-21.62,7.12L26.72,40h21l5-5c3.29-3.3,4.77-3.62,11.42-3.62H100.4ZM119.89,40,160,0H135.09l-40,40Z"></path>
  </g>
  <g class="letters">
    <path class="t-letter" d="M185.2,8.8H170V0h41.07V8.8h-15.2V40H185.2Z"></path>
    <path class="v-letter" d="M231.87,30.45c.21.8.48,1.28,1.12,1.28s1-.37,1.22-1.33L243,0h10.77l-9.92,31.2C242,37,239.07,40.53,233,40.53c-6.51,0-9.17-3.14-11.2-9.33L211.6,0h11.73Z"></path>
  </g>
</svg>